<?xml version="1.0" encoding="UTF-8" standalone="no"?>
<!-- Created with Inkscape (http://www.inkscape.org/) -->

<svg
   xmlns:dc="http://purl.org/dc/elements/1.1/"
   xmlns:cc="http://creativecommons.org/ns#"
   xmlns:rdf="http://www.w3.org/1999/02/22-rdf-syntax-ns#"
   xmlns:svg="http://www.w3.org/2000/svg"
   xmlns="http://www.w3.org/2000/svg"
   xmlns:xlink="http://www.w3.org/1999/xlink"
   xmlns:sodipodi="http://sodipodi.sourceforge.net/DTD/sodipodi-0.dtd"
   xmlns:inkscape="http://www.inkscape.org/namespaces/inkscape"
   width="210mm"
   height="297mm"
   viewBox="0 0 210 297"
   version="1.1"
   id="svg8"
   inkscape:version="0.92.5 (2060ec1f9f, 2020-04-08)"
   sodipodi:docname="genki00_top_eyes.svg">
  <defs
     id="defs2">
    <linearGradient
       id="linearGradient2353"
       inkscape:collect="always">
      <stop
         id="stop2349"
         offset="0"
         style="stop-color:#ffffff;stop-opacity:0" />
      <stop
         id="stop2351"
         offset="1"
         style="stop-color:#464646;stop-opacity:0.39215687" />
    </linearGradient>
    <filter
       inkscape:collect="always"
       style="color-interpolation-filters:sRGB"
       id="filter1150"
       x="-0.08197853"
       width="1.1639571"
       y="-0.22379621"
       height="1.4475924">
      <feGaussianBlur
         inkscape:collect="always"
         stdDeviation="3.4244078"
         id="feGaussianBlur1152" />
    </filter>
    <radialGradient
       inkscape:collect="always"
       xlink:href="#linearGradient1057-6"
       id="radialGradient1051"
       gradientUnits="userSpaceOnUse"
       gradientTransform="matrix(0.96983897,0,0,0.90922266,-186.00525,-746.55769)"
       cx="393.79831"
       cy="770.97662"
       fx="393.79831"
       fy="770.97662"
       r="189.45415" />
    <linearGradient
       inkscape:collect="always"
       id="linearGradient1057-6">
      <stop
         style="stop-color:#ffffff;stop-opacity:0"
         offset="0"
         id="stop2266" />
      <stop
         style="stop-color:#000000;stop-opacity:0.7764706"
         offset="1"
         id="stop2268" />
    </linearGradient>
    <filter
       inkscape:collect="always"
       style="color-interpolation-filters:sRGB"
       id="filter2292"
       x="-0.024593558"
       width="1.0491871"
       y="-0.067138866"
       height="1.1342777">
      <feGaussianBlur
         inkscape:collect="always"
         stdDeviation="3.8827931"
         id="feGaussianBlur2294" />
    </filter>
    <radialGradient
       inkscape:collect="always"
       xlink:href="#linearGradient2353"
       id="radialGradient2347"
       gradientUnits="userSpaceOnUse"
       gradientTransform="matrix(1.2865382,0,0,0.90922266,-310.72088,-746.55769)"
       cx="393.79831"
       cy="813.39905"
       fx="393.79831"
       fy="813.39905"
       r="189.45415" />
  </defs>
  <sodipodi:namedview
     id="base"
     pagecolor="#000000"
     bordercolor="#666666"
     borderopacity="1.0"
     inkscape:pageopacity="0"
     inkscape:pageshadow="2"
     inkscape:zoom="0.7"
     inkscape:cx="-18.261027"
     inkscape:cy="616.95303"
     inkscape:document-units="mm"
     inkscape:current-layer="g2343"
     showgrid="false"
     inkscape:showpageshadow="false"
     inkscape:window-width="1920"
     inkscape:window-height="1043"
     inkscape:window-x="1600"
     inkscape:window-y="0"
     inkscape:window-maximized="1"
     showborder="false" />
  <metadata
     id="metadata5">
    <rdf:RDF>
      <cc:Work
         rdf:about="">
        <dc:format>image/svg+xml</dc:format>
        <dc:type
           rdf:resource="http://purl.org/dc/dcmitype/StillImage" />
        <dc:title />
      </cc:Work>
    </rdf:RDF>
  </metadata>
  <g
     inkscape:label="bloom"
     inkscape:groupmode="layer"
     id="layer1"
     style="display:inline"
     sodipodi:insensitive="true">
    <path
       inkscape:connector-curvature="0"
       style="opacity:0.2;fill:#ffffff;fill-opacity:1;stroke:none;stroke-width:1.0000006;stroke-miterlimit:4;stroke-dasharray:none;filter:url(#filter1150)"
       d="m 59.402057,197.76622 c -1.34053,0.0297 -2.500161,0.45687 -3.411161,1.37666 -4.32969,4.37147 4.790133,15.26222 12.536701,22.14697 5.668921,5.03822 16.341667,11.50263 20.293335,13.0669 4.29282,1.69933 1.458042,-13.49996 -7.292578,-22.26065 -7.109885,-7.11807 -16.317335,-14.45851 -22.126297,-14.32988 z m 91.195983,0 c -5.80896,-0.12863 -15.01693,7.21181 -22.12681,14.32988 -8.75062,8.76069 -11.5854,23.95998 -7.29258,22.26065 3.95167,-1.56427 14.62493,-8.02868 20.29385,-13.0669 7.74657,-6.88475 16.86639,-17.7755 12.5367,-22.14697 -0.911,-0.91979 -2.07063,-1.34698 -3.41116,-1.37666 z"
       id="eyes-9"
       inkscape:label="eyes" />
    <path
       style="opacity:0.5;fill:none;fill-opacity:1;stroke:none;stroke-width:0.26458332px;stroke-linecap:butt;stroke-linejoin:miter;stroke-opacity:1"
       d="m 98.9526,65.030381 c -1.05758,6.83982 -5.29182,8.59888 -12.09538,15.78043 -6.80358,7.18155 -36.28564,38.553339 -41.57731,65.200669 -4.60767,23.20292 -1.51198,39.30938 4.53564,54.05045 3.72884,9.08904 19.10456,24.01398 33.35145,32.75459 8.85947,5.43537 17.62996,7.45611 21.83274,7.31118 4.2028,0.14493 12.97382,-1.87581 21.8333,-7.31118 14.24684,-8.74061 29.62258,-23.66555 33.35141,-32.75459 6.04762,-14.74107 9.14331,-30.84753 4.53564,-54.05045 -5.29167,-26.64733 -34.77375,-58.019119 -41.57732,-65.200669 -6.80357,-7.18155 -11.0378,-8.94061 -12.09538,-15.78043 -0.87976,-5.68977 -2.92735,-8.16535 -6.04763,-8.16531 -3.12027,4e-5 -5.16744,2.47573 -6.04716,8.16531 z"
       id="body"
       inkscape:connector-curvature="0"
       sodipodi:nodetypes="ssssscssssscs"
       inkscape:label="body" />
  </g>
  <g
     inkscape:groupmode="layer"
     id="layer2"
     inkscape:label="innerGlow"
     style="display:inline"
     sodipodi:insensitive="true">
    <path
       inkscape:connector-curvature="0"
       style="opacity:0.8;fill:url(#radialGradient1051);fill-opacity:1;stroke:none;stroke-width:3.77952981;stroke-miterlimit:4;stroke-dasharray:none;filter:url(#filter2292)"
       d="m 26.433986,9.3250016 c -5.06657,0.11219 -9.44943,1.7267604 -12.89258,5.2031304 -16.3641804,16.52209 18.10444,57.68397 47.38281,83.70507 21.42584,19.042098 61.763784,43.474518 76.699224,49.386718 16.22483,6.42267 5.51071,-51.023488 -27.5625,-84.134758 C 83.188926,36.582222 48.389116,8.8388516 26.433986,9.3250016 Z m 344.677734,0 c -21.95513,-0.48615 -56.75689,27.2572204 -83.6289,54.1601604 -33.07321,33.11127 -43.78733,90.557428 -27.5625,84.134758 14.93544,-5.9122 55.27533,-30.34462 76.70117,-49.386718 29.27837,-26.0211 63.74699,-67.18298 47.38281,-83.70507 -3.44314,-3.47637 -7.82601,-5.0909404 -12.89258,-5.2031304 z"
       id="eyes"
       inkscape:label="eyes"
       transform="matrix(0.26458333,0,0,0.26458333,52.408066,195.29898)" />
  </g>
  <g
     style="display:inline"
     inkscape:label="outerGlow"
     id="g2343"
     inkscape:groupmode="layer">
    <path
       transform="matrix(0.26458333,0,0,0.26458333,52.408066,195.29898)"
       inkscape:label="eyes"
       id="path2341"
       d="m 26.433986,9.3250016 c -5.06657,0.11219 -9.44943,1.7267604 -12.89258,5.2031304 -16.3641804,16.52209 18.10444,57.68397 47.38281,83.70507 21.42584,19.042098 61.763784,43.474518 76.699224,49.386718 16.22483,6.42267 5.51071,-51.023488 -27.5625,-84.134758 C 83.188926,36.582222 48.389116,8.8388516 26.433986,9.3250016 Z m 344.677734,0 c -21.95513,-0.48615 -56.75689,27.2572204 -83.6289,54.1601604 -33.07321,33.11127 -43.78733,90.557428 -27.5625,84.134758 14.93544,-5.9122 55.27533,-30.34462 76.70117,-49.386718 29.27837,-26.0211 63.74699,-67.18298 47.38281,-83.70507 -3.44314,-3.47637 -7.82601,-5.0909404 -12.89258,-5.2031304 z"
       style="opacity:0.8;fill:url(#radialGradient2347);fill-opacity:1;stroke:none;stroke-width:3.77952981;stroke-miterlimit:4;stroke-dasharray:none;filter:url(#filter2292)"
       inkscape:connector-curvature="0" />
  </g>
</svg>
