<?xml version="1.0" encoding="UTF-8" standalone="no"?>
<!-- Created with Inkscape (http://www.inkscape.org/) -->

<svg
   xmlns:dc="http://purl.org/dc/elements/1.1/"
   xmlns:cc="http://creativecommons.org/ns#"
   xmlns:rdf="http://www.w3.org/1999/02/22-rdf-syntax-ns#"
   xmlns:svg="http://www.w3.org/2000/svg"
   xmlns="http://www.w3.org/2000/svg"
   xmlns:xlink="http://www.w3.org/1999/xlink"
   xmlns:sodipodi="http://sodipodi.sourceforge.net/DTD/sodipodi-0.dtd"
   xmlns:inkscape="http://www.inkscape.org/namespaces/inkscape"
   width="210mm"
   height="297mm"
   viewBox="0 0 210 297"
   version="1.1"
   id="svg8"
   inkscape:version="0.92.5 (2060ec1f9f, 2020-04-08)"
   sodipodi:docname="genki00_top_eyes.svg">
  <defs
     id="defs2">
    <linearGradient
       id="linearGradient1057"
       inkscape:collect="always">
      <stop
         id="stop1053"
         offset="0"
         style="stop-color:#000000;stop-opacity:1" />
      <stop
         id="stop1055"
         offset="1"
         style="stop-color:#808080;stop-opacity:0;" />
    </linearGradient>
    <radialGradient
       inkscape:collect="always"
       xlink:href="#linearGradient1057"
       id="radialGradient1051"
       gradientUnits="userSpaceOnUse"
       gradientTransform="matrix(2.7569279,-1.1833854e-8,0,1.5577018,-697.23787,-499.70586)"
       cx="396.85059"
       cy="820.43286"
       fx="396.85059"
       fy="820.43286"
       r="189.45415" />
    <filter
       inkscape:collect="always"
       style="color-interpolation-filters:sRGB"
       id="filter1150"
       x="-0.08197853"
       width="1.1639571"
       y="-0.22379621"
       height="1.4475924">
      <feGaussianBlur
         inkscape:collect="always"
         stdDeviation="3.4244078"
         id="feGaussianBlur1152" />
    </filter>
  </defs>
  <sodipodi:namedview
     id="base"
     pagecolor="#000000"
     bordercolor="#666666"
     borderopacity="1.0"
     inkscape:pageopacity="0"
     inkscape:pageshadow="2"
     inkscape:zoom="0.7"
     inkscape:cx="238.88183"
     inkscape:cy="616.95303"
     inkscape:document-units="mm"
     inkscape:current-layer="layer1"
     showgrid="false"
     inkscape:showpageshadow="false"
     inkscape:window-width="1920"
     inkscape:window-height="1043"
     inkscape:window-x="1600"
     inkscape:window-y="0"
     inkscape:window-maximized="1"
     showborder="false" />
  <metadata
     id="metadata5">
    <rdf:RDF>
      <cc:Work
         rdf:about="">
        <dc:format>image/svg+xml</dc:format>
        <dc:type
           rdf:resource="http://purl.org/dc/dcmitype/StillImage" />
        <dc:title></dc:title>
      </cc:Work>
    </rdf:RDF>
  </metadata>
  <g
     inkscape:label="Layer 1"
     inkscape:groupmode="layer"
     id="layer1">
    <path
       inkscape:connector-curvature="0"
       style="opacity:0.5;fill:#ffffff;fill-opacity:1;stroke:none;stroke-width:1.0000006;stroke-miterlimit:4;stroke-dasharray:none;filter:url(#filter1150)"
       d="m 59.402057,197.76622 c -1.34053,0.0297 -2.500161,0.45687 -3.411161,1.37666 -4.32969,4.37147 4.790133,15.26222 12.536701,22.14697 5.668921,5.03822 16.341667,11.50263 20.293335,13.0669 4.29282,1.69933 1.458042,-13.49996 -7.292578,-22.26065 -7.109885,-7.11807 -16.317335,-14.45851 -22.126297,-14.32988 z m 91.195983,0 c -5.80896,-0.12863 -15.01693,7.21181 -22.12681,14.32988 -8.75062,8.76069 -11.5854,23.95998 -7.29258,22.26065 3.95167,-1.56427 14.62493,-8.02868 20.29385,-13.0669 7.74657,-6.88475 16.86639,-17.7755 12.5367,-22.14697 -0.911,-0.91979 -2.07063,-1.34698 -3.41116,-1.37666 z"
       id="eyes-9"
       inkscape:label="eyes" />
    <path
       style="opacity:0.5;fill:none;stroke:none;stroke-width:0.26458332px;stroke-linecap:butt;stroke-linejoin:miter;stroke-opacity:1;fill-opacity:1"
       d="m 98.9526,65.030381 c -1.05758,6.83982 -5.29182,8.59888 -12.09538,15.78043 -6.80358,7.18155 -36.28564,38.553339 -41.57731,65.200669 -4.60767,23.20292 -1.51198,39.30938 4.53564,54.05045 3.72884,9.08904 19.10456,24.01398 33.35145,32.75459 8.85947,5.43537 17.62996,7.45611 21.83274,7.31118 4.2028,0.14493 12.97382,-1.87581 21.8333,-7.31118 14.24684,-8.74061 29.62258,-23.66555 33.35141,-32.75459 6.04762,-14.74107 9.14331,-30.84753 4.53564,-54.05045 -5.29167,-26.64733 -34.77375,-58.019119 -41.57732,-65.200669 -6.80357,-7.18155 -11.0378,-8.94061 -12.09538,-15.78043 -0.87976,-5.68977 -2.92735,-8.16535 -6.04763,-8.16531 -3.12027,4e-5 -5.16744,2.47573 -6.04716,8.16531 z"
       id="body"
       inkscape:connector-curvature="0"
       sodipodi:nodetypes="ssssscssssscs"
       inkscape:label="body" />
    <path
       style="opacity:0.8;fill:url(#radialGradient1051);fill-opacity:1;stroke:none;stroke-width:3.77952981;stroke-miterlimit:4;stroke-dasharray:none"
       d="M 224.51172 747.46289 C 219.44515 747.57508 215.06229 749.18965 211.61914 752.66602 C 195.25496 769.18811 229.72358 810.34999 259.00195 836.37109 C 280.42779 855.41319 320.76573 879.84561 335.70117 885.75781 C 351.926 892.18048 341.21188 834.73432 308.13867 801.62305 C 281.26666 774.72011 246.46685 746.97674 224.51172 747.46289 z M 569.18945 747.46289 C 547.23432 746.97674 512.43256 774.72011 485.56055 801.62305 C 452.48734 834.73432 441.77322 892.18048 457.99805 885.75781 C 472.93349 879.84561 513.27338 855.41319 534.69922 836.37109 C 563.97759 810.34999 598.44621 769.18811 582.08203 752.66602 C 578.63889 749.18965 574.25602 747.57508 569.18945 747.46289 z "
       transform="scale(0.26458333)"
       id="eyes"
       inkscape:label="eyes" />
  </g>
</svg>
